<?xml version="1.0"?>
<svg viewBox="0 0 1882 1489" xmlns="http://www.w3.org/2000/svg" xmlns:svg="http://www.w3.org/2000/svg">
 <defs>
  <clipPath id="clip0">
   <rect fill="white" height="1489" id="svg_1" width="1882"/>
  </clipPath>
 </defs>
 <g class="layer">
  <title>Layer 1</title>
  <g clip-path="url(#clip0)" id="svg_2">
   <path d="m1487.67,84.59l-425.06,0l0,398.22l425.06,0l0,-398.22z" fill="#112B46" id="svg_3"/>
   <g id="svg_4">
    <g id="svg_5">
     <path d="m1487.67,84.59l-425.06,0l0,42.11l425.06,0l0,-42.11z" fill="#1D262D" id="svg_6"/>
    </g>
   </g>
   <path d="m1154.68,106.15c0,1.53 0.45,3.03 1.3,4.3c0.85,1.27 2.05,2.27 3.46,2.85c1.41,0.59 2.96,0.74 4.46,0.44c1.5,-0.3 2.87,-1.04 3.95,-2.12c1.08,-1.08 1.81,-2.46 2.11,-3.96c0.3,-1.5 0.14,-3.06 -0.44,-4.47c-0.58,-1.42 -1.57,-2.63 -2.84,-3.48c-1.27,-0.85 -2.76,-1.3 -4.29,-1.3c-1.01,-0.01 -2.02,0.19 -2.95,0.57c-0.94,0.39 -1.79,0.96 -2.51,1.68c-0.72,0.72 -1.29,1.58 -1.67,2.52c-0.39,0.94 -0.58,1.95 -0.58,2.97l0,0z" fill="#606BF1" id="svg_7"/>
   <path d="m1122.39,106.15c0,1.53 0.46,3.03 1.3,4.3c0.85,1.27 2.06,2.27 3.47,2.85c1.4,0.59 2.96,0.74 4.45,0.44c1.5,-0.3 2.87,-1.04 3.95,-2.12c1.08,-1.08 1.81,-2.46 2.11,-3.96c0.3,-1.5 0.15,-3.06 -0.44,-4.47c-0.58,-1.42 -1.57,-2.63 -2.84,-3.48c-1.27,-0.85 -2.76,-1.3 -4.28,-1.3c-1.02,-0.01 -2.02,0.19 -2.96,0.57c-0.94,0.39 -1.79,0.96 -2.51,1.68c-0.72,0.72 -1.28,1.58 -1.67,2.52c-0.39,0.94 -0.58,1.95 -0.58,2.97z" fill="#FBD15B" id="svg_8"/>
   <path d="m1092.59,106.94c-0.01,1.53 0.44,3.03 1.28,4.31c0.85,1.28 2.05,2.28 3.46,2.87c1.41,0.6 2.97,0.75 4.47,0.46c1.5,-0.3 2.88,-1.04 3.96,-2.13c1.08,-1.08 1.81,-2.46 2.11,-3.97c0.3,-1.51 0.14,-3.07 -0.45,-4.48c-0.59,-1.42 -1.58,-2.63 -2.86,-3.47c-1.27,-0.85 -2.77,-1.3 -4.3,-1.29c-2.03,0 -3.98,0.81 -5.42,2.25c-1.44,1.45 -2.25,3.4 -2.25,5.45z" fill="#FF8578" id="svg_9"/>
   <path d="m1351.89,170.97l60.22,0l0,-5.08l-60.22,0l0,5.08z" fill="#FF8578" id="svg_10"/>
   <path d="m1281.22,170.97l60.22,0l0,-5.08l-60.22,0l0,5.08z" fill="#FBD15B" id="svg_11"/>
   <path d="m1300.13,198.3l93.37,0l0,-5.07l-93.37,0l0,5.07z" fill="#606BF1" id="svg_12"/>
   <path d="m1237.25,198.3l47.45,0l0,-5.07l-47.45,0l0,5.07z" fill="#FF8578" id="svg_13"/>
   <path d="m1320.09,225.64l41,0l0,-5.08l-41,0l0,5.08z" fill="#FBD15B" id="svg_14"/>
   <path d="m1160.39,225.64l136.03,0l0,-5.08l-136.03,0l0,5.08z" fill="#FBD15B" id="svg_15"/>
   <path d="m1173.81,253.06l155.47,0l0,-5.07l-155.47,0l0,5.07z" fill="#606BF1" id="svg_16"/>
   <path d="m1320.3,280.39l47.85,0l0,-5.07l-47.85,0l0,5.07z" fill="#FF8578" id="svg_17"/>
   <path d="m1251.98,280.39l47.84,0l0,-5.07l-47.84,0l0,5.07z" fill="#606BF1" id="svg_18"/>
   <path d="m1342.53,422.36l69.58,0l0,-5.07l-69.58,0l0,5.07z" fill="#FF8578" id="svg_19"/>
   <path d="m1248.58,422.36l69.59,0l0,-5.07l-69.59,0l0,5.07z" fill="#FBD15B" id="svg_20"/>
   <path d="m1157.12,422.36l69.59,0l0,-5.07l-69.59,0l0,5.07z" fill="#FF8578" id="svg_21"/>
   <path d="m1257.47,394.98l136.03,0l0,-5.07l-136.03,0l0,5.07z" fill="#606BF1" id="svg_22"/>
   <path d="m1100.22,394.98l136.03,0l0,-5.07l-136.03,0l0,5.07z" fill="#FF8578" id="svg_23"/>
   <path d="m1226.1,367.65l134.99,0l0,-5.08l-134.99,0l0,5.08z" fill="#FF8578" id="svg_24"/>
   <path d="m1176.77,367.65l37.56,0l0,-5.08l-37.56,0l0,5.08z" fill="#FBD15B" id="svg_25"/>
   <path d="m1319.13,340.23l50.8,0l0,-5.08l-50.8,0l0,5.08z" fill="#FBD15B" id="svg_26"/>
   <path d="m1241.35,340.23l50.8,0l0,-5.08l-50.8,0l0,5.08z" fill="#606BF1" id="svg_27"/>
   <path d="m1157.82,340.23l50.81,0l0,-5.08l-50.81,0l0,5.08z" fill="#FF8578" id="svg_28"/>
   <path d="m1239.78,312.89l71.24,0l0,-5.07l-71.24,0l0,5.07z" fill="#FBD15B" id="svg_29"/>
   <path d="m1337.91,312.89l71.24,0l0,-5.07l-71.24,0l0,5.07z" fill="#606BF1" id="svg_30"/>
   <path d="m1451.54,160.99l-6.49,0l0,6.52l6.49,0l0,-6.52z" fill="#F9FBFC" id="svg_31"/>
   <path d="m1445.05,386.28l6.49,0l0,13.12l-6.49,0l0,-13.12zm0,-33.15l6.49,0l0,13.12l-6.49,0l0,-13.12zm0,-33.15l6.49,0l0,13.12l-6.49,0l0,-13.12zm0,-33.16l6.49,0l0,13.12l-6.49,0l0,-13.12zm0,-33.15l6.49,0l0,13.12l-6.49,0l0,-13.12zm0,-33.15l6.49,0l0,13.12l-6.49,0l0,-13.12zm0,-33.15l6.49,0l0,13.12l-6.49,0l0,-13.12z" fill="#F9FBFC" id="svg_32"/>
   <path d="m1451.54,419.43l-6.49,0l0,6.52l6.49,0l0,-6.52z" fill="#F9FBFC" id="svg_33"/>
   <path d="m621.17,216.58l350.03,0l0,-216.58l-350.03,0l0,216.58z" fill="#FF8578" id="svg_34"/>
   <path d="m840.7,74.75l49.93,22.52l0,15.48l-49.93,22.4l-5.45,-12.69l41.61,-17.49l-41.61,-17.8l5.45,-12.42z" fill="#F9FBFC" id="svg_35"/>
   <path d="m788.15,42.56l30.5,116.42l-14.38,3.37l-30.41,-116.51l14.29,-3.28z" fill="#F9FBFC" id="svg_36"/>
   <path d="m751.54,74.75l5.45,12.37l-41.52,17.85l41.52,17.49l-5.45,12.64l-50.02,-22.35l0,-15.48l50.02,-22.52z" fill="#F9FBFC" id="svg_37"/>
   <path d="m433.81,562.1l199.35,0l0,-142.58l-199.35,0l0,142.58z" fill="#606BF1" id="svg_38"/>
   <path d="m549.76,440.9c16.21,0 20.78,5.12 20.78,16.06l0,20.33c0,5.82 1.53,8.18 6.84,8.18l0,10.72c-5.31,0 -6.84,2.27 -6.84,8.09l0,20.55c0,10.81 -4.57,16.01 -20.78,16.01l0,-9.4c6.32,0 8.71,-1.71 8.71,-6.52l0,-21.47c0,-8.27 3.45,-10.81 9.24,-12.34c-5.79,-1.66 -9.24,-4.37 -9.24,-12.59l0,-21.43c0,-4.81 -2.13,-6.56 -8.71,-6.56l0,-9.63z" fill="#F1F2F2" id="svg_39"/>
   <path d="m517.21,440.9l0,9.58c-6.4,0 -8.71,1.75 -8.71,6.56l0,21.43c0,8.4 -3.49,10.94 -9.29,12.6c1.43,0.17 2.81,0.63 4.06,1.35c1.25,0.72 2.34,1.68 3.2,2.83c0.87,1.15 1.5,2.47 1.84,3.87c0.35,1.4 0.41,2.86 0.19,4.28l0,21.43c0,4.81 2.22,6.52 8.71,6.52l0,9.4c-16.21,0 -20.78,-5.2 -20.78,-16l0,-20.47c0,-5.82 -1.53,-8.09 -6.93,-8.09l0,-10.72c5.4,0 6.93,-2.36 6.93,-8.18l0,-20.33c0,-10.85 4.66,-16.06 20.78,-16.06z" fill="#F1F2F2" id="svg_40"/>
  </g>
 </g>
</svg>