<?xml version="1.0"?>
<svg viewBox="0 0 1882 1489" xmlns="http://www.w3.org/2000/svg" xmlns:svg="http://www.w3.org/2000/svg">
 <defs>
  <clipPath id="clip0">
   <rect fill="white" height="1489" id="svg_1" width="1882"/>
  </clipPath>
 </defs>
 <g class="layer">
  <title>Layer 1</title>
  <g clip-path="url(#clip0)" id="svg_2">
   <path d="m1382.7,798.49l82.13,-219.82l-233.81,0l-82.09,219.82l233.77,0z" fill="#ABB5BA" id="svg_80"/>
   <path d="m1134.46,798.49l14.47,0l82.09,-219.82l-13.11,0.57l-75.95,199l-7.5,20.25z" fill="#8495A0" id="svg_81"/>
   <path d="m1139,798.49l-154.25,0l0.39,-13.86l157.26,0" fill="#8495A0" id="svg_82"/>
   <path d="m518.08,840.44l-37.21,0l0,613.31l37.21,0l0,-613.31z" fill="#8495A0" id="svg_83"/>
   <path d="m719.96,840.44l-37.22,0l0,613.31l37.22,0l0,-613.31z" fill="#ABB5BA" id="svg_84"/>
   <path d="m1366.75,840.44l-37.21,0l0,613.31l37.21,0l0,-613.31z" fill="#8495A0" id="svg_85"/>
   <path d="m1568.62,840.44l-37.21,0l0,613.31l37.21,0l0,-613.31z" fill="#ABB5BA" id="svg_86"/>
   <path d="m443.62,842.75l1160.61,0c9.98,0 18.08,-8.12 18.08,-18.15l0,-7.96c0,-10.02 -8.1,-18.15 -18.08,-18.15l-1160.61,0c-9.99,0 -18.08,8.13 -18.08,18.15l0,7.96c0,10.03 8.09,18.15 18.08,18.15z" fill="#141B56" id="svg_87"/>
   <path d="m1425.8,601.77l-4.01,10.71l-46.58,0l4.01,-10.71l46.58,0z" fill="#8495A0" id="svg_88"/>
  </g>
 </g>
</svg>