<?xml version="1.0"?>
<svg width="1882" height="1489" xmlns="http://www.w3.org/2000/svg" xmlns:svg="http://www.w3.org/2000/svg">
 <defs>
  <clipPath id="clip0">
   <rect fill="white" height="1489" id="svg_1" width="1882"/>
  </clipPath>
 </defs>
 <g class="layer">
  <title>Layer 1</title>
  <g clip-path="url(#clip0)" id="svg_2">
   <path d="m621.17,216.58l350.03,0l0,-216.58l-350.03,0l0,216.58z" fill="#FF8578" id="svg_34"/>
   <path d="m840.7,74.75l49.93,22.52l0,15.48l-49.93,22.4l-5.45,-12.69l41.61,-17.49l-41.61,-17.8l5.45,-12.42z" fill="#F9FBFC" id="svg_35"/>
   <path d="m788.15,42.56l30.5,116.42l-14.38,3.37l-30.41,-116.51l14.29,-3.28z" fill="#F9FBFC" id="svg_36"/>
   <path d="m751.54,74.75l5.45,12.37l-41.52,17.85l41.52,17.49l-5.45,12.64l-50.02,-22.35l0,-15.48l50.02,-22.52z" fill="#F9FBFC" id="svg_37"/>
   <path d="m433.81,562.1l199.35,0l0,-142.58l-199.35,0l0,142.58z" fill="#606BF1" id="svg_38"/>
   <path d="m549.76,440.9c16.21,0 20.78,5.12 20.78,16.06l0,20.33c0,5.82 1.53,8.18 6.84,8.18l0,10.72c-5.31,0 -6.84,2.27 -6.84,8.09l0,20.55c0,10.81 -4.57,16.01 -20.78,16.01l0,-9.4c6.32,0 8.71,-1.71 8.71,-6.52l0,-21.47c0,-8.27 3.45,-10.81 9.24,-12.34c-5.79,-1.66 -9.24,-4.37 -9.24,-12.59l0,-21.43c0,-4.81 -2.13,-6.56 -8.71,-6.56l0,-9.63z" fill="#F1F2F2" id="svg_39"/>
   <path d="m517.21,440.9l0,9.58c-6.4,0 -8.71,1.75 -8.71,6.56l0,21.43c0,8.4 -3.49,10.94 -9.29,12.6c1.43,0.17 2.81,0.63 4.06,1.35c1.25,0.72 2.34,1.68 3.2,2.83c0.87,1.15 1.5,2.47 1.84,3.87c0.35,1.4 0.41,2.86 0.19,4.28l0,21.43c0,4.81 2.22,6.52 8.71,6.52l0,9.4c-16.21,0 -20.78,-5.2 -20.78,-16l0,-20.47c0,-5.82 -1.53,-8.09 -6.93,-8.09l0,-10.72c5.4,0 6.93,-2.36 6.93,-8.18l0,-20.33c0,-10.85 4.66,-16.06 20.78,-16.06z" fill="#F1F2F2" id="svg_40"/>
  </g>
 </g>
</svg>