<?xml version="1.0"?>
<svg width="1882" height="1489" xmlns="http://www.w3.org/2000/svg" xmlns:svg="http://www.w3.org/2000/svg">
 <defs>
  <clipPath id="clip0">
   <rect fill="white" height="1489" id="svg_1" width="1882"/>
  </clipPath>
 </defs>
 <g class="layer">
  <title>Layer 1</title>
  <g clip-path="url(#clip0)" id="svg_2">
   <path d="m751.68,1000.69l40.21,0l0,387.19c0,1.89 -0.75,3.71 -2.08,5.04c-1.33,1.34 -3.14,2.09 -5.02,2.09l-26.14,0c-1.89,0 -3.69,-0.75 -5.02,-2.09c-1.34,-1.33 -2.09,-3.15 -2.09,-5.04l0,-387.19l0.14,0z" fill="#0A2033" id="svg_49"/>
   <path d="m661.22,1006.2l221.09,0l0,6.08c0,7.32 -2.9,14.33 -8.06,19.51c-5.15,5.18 -12.14,8.08 -19.44,8.08l-166.05,0c-7.29,0 -14.29,-2.9 -19.44,-8.08c-5.16,-5.18 -8.06,-12.19 -8.06,-19.51l0,-6.08l-0.04,0z" fill="#30475E" id="svg_50"/>
   <path d="m751.68,1349.04l40.21,0l0,89.88c0,1.89 -0.75,3.71 -2.08,5.04c-1.33,1.34 -3.14,2.09 -5.02,2.09l-26.14,0c-1.89,0 -3.69,-0.75 -5.02,-2.09c-1.34,-1.33 -2.09,-3.15 -2.09,-5.04l0,-89.88l0.14,0z" fill="#0A2033" id="svg_51"/>
   <path d="m980.39,1422.26c0,4.67 -1.38,9.24 -3.97,13.12c-2.58,3.89 -6.26,6.91 -10.56,8.7c-4.3,1.79 -9.03,2.26 -13.59,1.34c-4.56,-0.91 -8.76,-3.16 -12.05,-6.46c-3.29,-3.3 -5.53,-7.51 -6.44,-12.09c-0.91,-4.58 -0.44,-9.33 1.34,-13.65c1.78,-4.31 4.8,-8 8.67,-10.6c3.87,-2.59 8.42,-3.98 13.07,-3.98c6.24,0 12.23,2.49 16.64,6.92c4.41,4.43 6.89,10.44 6.89,16.7z" fill="#0A2033" id="svg_52"/>
   <path d="m610.02,1422.26c0,4.67 -1.38,9.24 -3.96,13.12c-2.59,3.89 -6.26,6.91 -10.56,8.7c-4.3,1.79 -9.03,2.26 -13.6,1.34c-4.56,-0.91 -8.76,-3.16 -12.05,-6.46c-3.29,-3.3 -5.53,-7.51 -6.44,-12.09c-0.9,-4.58 -0.44,-9.33 1.34,-13.65c1.78,-4.31 4.8,-8 8.67,-10.6c3.87,-2.59 8.42,-3.98 13.07,-3.98c6.24,0 12.23,2.49 16.64,6.92c4.41,4.43 6.89,10.44 6.89,16.7z" fill="#0A2033" id="svg_53"/>
   <path d="m812.2,1319l-80.87,0l0,70.94l80.87,0l0,-70.94z" fill="#30475E" id="svg_54"/>
   <path d="m588.24,1373.32l367.14,0c6.64,0 13.02,2.65 17.72,7.37c4.69,4.71 7.33,11.11 7.33,17.78l0,8.22l-417.29,0l0,-8.22c0,-3.31 0.65,-6.58 1.91,-9.64c1.26,-3.05 3.11,-5.82 5.44,-8.16c2.33,-2.34 5.1,-4.19 8.14,-5.45c3.05,-1.26 6.31,-1.91 9.61,-1.9l0,0z" fill="#FBD15B" id="svg_55"/>
   <path d="m771.81,1312.66l13.94,0l0,-264.83l-13.94,0l0,264.83z" fill="#30475E" id="svg_56"/>
   <path d="m613.81,720.03c2.29,-0.08 4.57,0.32 6.7,1.17c2.13,0.86 4.05,2.15 5.65,3.8c1.59,1.65 2.83,3.62 3.62,5.77c0.8,2.16 1.13,4.46 0.98,6.75c-2.74,48.11 7.41,165.33 51.98,205.57c54.56,48.89 209.15,42.24 209.15,42.24c0,0 25.54,31.45 -25.53,38.45c-51.07,7 -194.9,2.32 -229.72,-30.31c-33.68,-31.53 -53.68,-114.24 -38.6,-258.04c0.39,-3.99 2.2,-7.7 5.11,-10.45c2.91,-2.74 6.72,-4.33 10.71,-4.47l-0.05,-0.48z" fill="#FBD15B" id="svg_57"/>
  </g>
 </g>
</svg>