<?xml version="1.0"?>
<svg width="1882" height="1489" xmlns="http://www.w3.org/2000/svg" xmlns:svg="http://www.w3.org/2000/svg">
 <defs>
  <radialGradient cx="0" cy="0" gradientTransform="translate(802.353 492.471) rotate(180) scale(56.3398 56.551)" gradientUnits="userSpaceOnUse" id="paint0_radial" r="1">
   <stop stop-color="#FFC8AF"/>
   <stop offset="1" stop-color="#FFBB9C"/>
  </radialGradient>
  <radialGradient cx="0" cy="0" gradientTransform="translate(-40740.8 9445.34) rotate(-167.861) scale(3189.1 4032.51)" gradientUnits="userSpaceOnUse" id="paint1_radial" r="1">
   <stop stop-color="#FFC8AF"/>
   <stop offset="1" stop-color="#FFBB9C"/>
  </radialGradient>
  <radialGradient cx="0" cy="0" gradientTransform="translate(17351.1 21893.9) scale(607.889 543.671)" gradientUnits="userSpaceOnUse" id="paint2_radial" r="1">
   <stop stop-color="#FFC8AF"/>
   <stop offset="1" stop-color="#FFBB9C"/>
  </radialGradient>
  <radialGradient cx="0" cy="0" gradientTransform="translate(12231.3 20943.5) scale(487.527 468.639)" gradientUnits="userSpaceOnUse" id="paint3_radial" r="1">
   <stop stop-color="#FFC8AF"/>
   <stop offset="1" stop-color="#FFBB9C"/>
  </radialGradient>
  <radialGradient cx="0" cy="0" gradientTransform="translate(25040.2 8223.31) scale(4658.6 1812.44)" gradientUnits="userSpaceOnUse" id="paint4_radial" r="1">
   <stop stop-color="#FFC8AF"/>
   <stop offset="1" stop-color="#FFBB9C"/>
  </radialGradient>
  <radialGradient cx="0" cy="0" gradientTransform="translate(63384.3 17792) scale(12146.6 4143.08)" gradientUnits="userSpaceOnUse" id="paint5_radial" r="1">
   <stop stop-color="#FFC8AF"/>
   <stop offset="1" stop-color="#FFBB9C"/>
  </radialGradient>
  <clipPath id="clip0">
   <rect fill="white" height="1489" id="svg_1" width="1882"/>
  </clipPath>
 </defs>
 <g class="layer">
  <title>Layer 1</title>
  <g clip-path="url(#clip0)" id="svg_2">
   <path d="m748.72,494.88c0.52,4.94 7.27,56.85 60.3,56.85c55.69,0 46.36,-55.32 46.36,-55.32l0,-0.35c-5.73,-1.21 -11.61,-1.49 -17.43,-0.83l0,-26.24l-63.22,-35.48l-2.31,0l0,61.24c-7.89,-0.78 -15.83,-0.73 -23.7,0.13l0,0z" fill="url(#paint0_radial)" id="svg_43"/>
   <path d="m779.43,316.39c-9.52,9.76 -16.1,22.03 -18.99,35.38c-6.06,26.85 -0.35,55.33 7.4,81.22c1.15,4.5 3.03,8.77 5.58,12.64c2.03,2.6 4.35,4.94 6.93,7l33.68,29.52c7.63,6.69 54.42,12.24 63.36,5.86c34.46,-24.71 41.09,-96.22 34.16,-132.92c-11.42,-60.7 -89.15,-82.44 -132.12,-38.7z" fill="url(#paint1_radial)" id="svg_44"/>
   <path d="m798.78,394.11c-0.48,-5.86 -6.45,-12.25 -12.46,-8.44c-6.02,3.8 -4.75,14.3 -2.18,19.98c2,4.38 8.71,9.41 13.38,5.21c3.83,-3.46 -2.14,-7.57 -2.36,-10.76c-0.21,-3.19 5.58,-4.94 3.23,-8" fill="#F7B094" id="svg_45"/>
   <path d="m797.69,421.14c-4.12,0.66 -8.34,-0.16 -11.92,-2.3c-3.58,-2.14 -6.3,-5.48 -7.69,-9.42c-1.69,-6.11 -2.49,-12.43 -2.39,-18.77c-2.14,6.7 -2.67,13.8 -1.57,20.73c1.65,12.77 6.1,24.93 16.12,25.11c10.02,0.17 7.45,-15.35 7.45,-15.35z" fill="#F7B094" id="svg_46"/>
   <path d="m805.36,412.04l0.7,0.22c3.92,0.52 5.44,-4.37 6.01,-7.13c1.01,-6.91 1.47,-13.88 1.4,-20.86c-0.13,-1.89 0.07,-3.78 0.61,-5.6c2.22,-4.99 8.01,-8.27 9.8,-13.43c2.05,-6.03 -3.79,-12.07 -1.48,-18.67c3.57,-10.11 16.47,-12.42 25.84,-12.29c13.95,0.64 27.84,2.29 41.56,4.94c14.6,2.27 33.29,4.37 46.19,-4.85c15.51,-11.2 22.01,-40.33 10.41,-56.29c-3.52,-4.24 -7.92,-7.65 -12.9,-9.99c-4.97,-2.35 -10.4,-3.57 -15.9,-3.57c-11.11,-0.26 -20.52,6.38 -30.72,9.71c-8.1,2.67 -15.99,-5.12 -23.57,-6.65c-9.54,-1.93 -13.59,8.75 -22.05,8.75c-8.45,0 -16.25,-6.17 -24.22,-7.61c-15.91,-2.93 -14.99,13.12 -25.67,18.59c-6.62,3.41 -15.2,1.35 -21.78,4.81c-5.1,2.62 -5.8,7.26 -6.89,12.46c-0.59,4.74 -1.43,9.44 -2.53,14.08c-1.79,3.56 -4.25,6.73 -7.23,9.36c-2.65,3.36 -4.65,7.19 -5.88,11.29c-2.94,9.25 -3.95,19.02 -2.96,28.69c2.02,16.15 6.05,31.99 11.98,47.15c3.49,9.88 4.75,20.11 10.11,29.43c1.44,2.54 7.84,9.84 10.19,4.37c0.43,-1.2 0.55,-2.49 0.35,-3.76c-0.7,-10.14 -10.11,-75.62 14.6,-67.75c2.47,0.91 4.71,2.36 6.54,4.25c1.84,1.9 3.22,4.18 4.05,6.69c2.03,5.81 2.77,11.98 2.18,18.11c0,0.87 0,1.79 0,2.66c-0.06,0.55 0.02,1.11 0.24,1.62c0.22,0.5 0.57,0.94 1.02,1.27l0,0z" fill="#3D3D7A" id="svg_47"/>
   <path d="m837.99,489.06c-28.1,-4.37 -46.62,-26.77 -46.62,-26.77c2.62,10.98 8.77,20.78 17.5,27.9c8.72,7.11 19.54,11.14 30.78,11.47l-1.66,-12.6z" fill="#F7B094" id="svg_48"/>
   <path d="m903.44,1312.66l-18.39,42.07l56.3,24.8l18.47,-42.21l-56.38,-24.66z" fill="url(#paint2_radial)" id="svg_58"/>
   <path d="m637.82,845.07c3.48,7 253.72,0 277.38,2.32c0,0 153.16,73.39 175.12,142.05c2.37,8.79 3.11,17.94 2.18,26.99c-6.14,96.7 -115.86,328.28 -115.86,328.28l-16.82,-7.39l-56.38,-24.66l-8.02,-3.5c0,0 87.15,-260.32 69.72,-274.27c-17.43,-13.96 -214.64,-48.94 -283.23,-67.53c-68.58,-18.59 -44.09,-122.29 -44.09,-122.29z" fill="#56548C" id="svg_59"/>
   <path d="m1118.12,1323.46l-4.4,63.2l61.48,0l4.4,-63.33l-61.48,0.13z" fill="url(#paint3_radial)" id="svg_60"/>
   <path d="m916.43,845.25l2.26,0.96c0,0 256.39,36.12 298.17,108.33c27.15,46.93 -25.4,390.04 -25.4,390.04l-90.72,0.22c0,0 13.55,-285.81 9.02,-301.78c-5.05,-18.19 -13.77,-24.75 -17.43,-26.63c0.93,-9.06 0.19,-18.2 -2.18,-26.99c-21.78,-68.66 -175.12,-142.05 -175.12,-142.05c0.66,-0.55 1.15,-1.28 1.4,-2.1z" fill="#3D3D7A" id="svg_61"/>
   <path d="m639,923.06c1.83,3.85 41.65,-24.76 112.68,-50.95c81.91,-30.18 157.69,-20.95 163.48,-25.72c0.62,-0.58 1.06,-1.32 1.26,-2.14c1.88,-5.21 3.06,-18.11 3.54,-36.09c0,-2.93 -0.01,-6.07 0.21,-9.27l-2.66,0.22l-2.91,-15.61l-214.21,-81.61c-6.53,-30.73 -11.34,-61.81 -14.42,-93.07l-17.17,-2.37c-11.5,87.21 -52.16,270.03 -29.8,316.61z" fill="#FF8578" id="svg_62"/>
   <path d="m691.15,714.08c5.71,27.51 20.44,82.31 49.41,89.66c37.82,9.62 110.9,9.14 179.39,5.42c0,-2.93 0,-6.07 0.22,-9.27l-2.66,0.22l-2.92,-15.61l-214.2,-81.62c-6.53,-30.73 -11.35,-61.8 -14.42,-93.07c0,0 0,0.27 0,0.79c-0.48,7.17 -3.4,62.94 5.18,103.48z" fill="#F4675D" id="svg_63"/>
   <path d="m904.88,538.74c3.79,7 9.33,81.75 12.29,155.97l43.79,-41.03c-18.56,-36.12 -56.08,-114.94 -56.08,-114.94z" fill="#F4675D" id="svg_64" transform="matrix(1 0 0 1 0 0)"/>
   <path d="m931.11,748.94c36.95,6.43 70.94,11.94 70.94,11.94l0,1.84c41.13,-32.98 103.7,-126.44 103.7,-126.44c0,0 -18.74,-22.57 -23.4,-28.48c-0.7,-0.92 -102.74,69.59 -107.97,68.98c-1.31,0 -6.54,-9.41 -13.51,-23.1l-43.79,41.03c0.7,17.49 1.26,35.29 1.61,52c4.06,0.74 8.41,1.44 12.42,2.23z" fill="#F7B094" id="svg_65"/>
   <path d="m1003.05,761.01l0.92,30.62l111.5,0c0,0 -11.07,-43.74 -41.22,-43.74c-30.15,0 -41.74,16.01 -41.74,16.01l-29.46,-2.89z" fill="url(#paint4_radial)" id="svg_66" transform="translate(-1 -1)"/>
   <path d="m1083.27,607.1l-0.83,0.7c4.66,5.91 23.4,28.47 23.4,28.47l11.63,-8.22c4.28,2.28 9.06,3.44 13.9,3.38c4.85,-0.06 9.6,-1.34 13.82,-3.73c15.51,-8.44 5.92,-28.64 5.09,-31.05c3.01,0.87 21.79,15.96 24.54,14.35c2.74,-1.62 5.09,-6.91 -15.73,-27.51c-20.83,-20.6 -48.98,5.86 -49.85,5.86l-25.97,17.75z" fill="#F7B094" id="svg_67"/>
   <path d="m1143.75,624.21c0,0 4.35,8.44 -3.49,12.07c-9.58,3.85 -19.83,5.78 -30.15,5.68c-6.67,-0.65 -11.99,-10.01 -11.99,-10.01l20.22,-19.03l16.12,0l9.29,11.29z" fill="#F7B094" id="svg_68"/>
   <path d="m1144.97,628.32c-1.22,-4.11 -12.68,-1.93 -19.79,-1.75c-5.22,0 -8.1,-1.23 -9.71,-5.25c-1.61,-4.03 5.97,-10.37 7.45,-8.4c1.48,1.97 -2.7,4.85 -2.83,7.48c-0.13,2.62 7.45,3.54 13.33,3.54c5.34,0.21 10.66,0.72 15.95,1.53l-4.4,2.85z" fill="#E8987C" id="svg_69"/>
   <path d="m711.28,742.6l108.94,-38.8c7.93,14.87 16.42,26.25 24.83,28.3c12.73,3.37 43.58,9.14 74.56,14.61c4.09,0.74 8.23,1.44 12.33,2.23c36.95,6.43 70.93,11.94 70.93,11.94l0,1.84l0,1.18l0.83,27.6l0,6.99c-27.92,-1.04 -55.87,-0.58 -83.74,1.4c-65.36,4.68 -149.68,7.48 -177.61,-5.73c-13.07,-6.21 -23.53,-26.63 -31.76,-51.78l0.69,0.22z" fill="url(#paint5_radial)" id="svg_70" transform="translate(-1 -1)"/>
   <path d="m819.39,702.8l-109.11,38.8l4.93,14.61l107.97,-46.49l-3.79,-6.92z" fill="#F7B094" id="svg_71"/>
   <path d="m819.39,702.8c7.93,14.87 16.43,26.25 24.84,28.3c12.72,3.37 43.57,9.14 74.55,14.61c-0.35,-16.71 -0.91,-34.33 -1.61,-52c-2.97,-74.35 -8.5,-148.97 -12.29,-155.97c-6.27,-11.67 -23.4,-37.04 -50.41,-42.81l0,0.35c0,0 9.32,55.32 -46.37,55.32c-53.02,0 -59.78,-51.78 -60.3,-56.85c-27.28,3.06 -69.11,16.75 -74.9,71.81c-1.18,10.89 -2.83,24.89 -5.01,40.76l17.21,2.36c0,0 6.97,77.55 24.83,132.57l0.44,0l109.02,-38.45z" fill="#FF8578" id="svg_72"/>
   <g id="svg_73">
    <path d="m820.48,692.7l-43.53,-105.84l32.07,110.13l11.46,-4.29z" fill="#6D4B35" id="svg_74"/>
   </g>
   <path d="m747.71,493.88l23.75,0c0,0 33.81,37.22 55.51,37.22c21.7,0 10.02,-37 10.02,-37l10.59,0c14.7,0 28.89,5.43 39.86,15.25c10.97,9.82 17.95,23.36 19.62,38.02c0.39,3.5 0.78,6.77 1.09,9.75c2.31,22.52 -88.58,38.92 -88.58,38.92l-46.85,-2.62l-28.4,-55.68l-5.67,-22.78l9.06,-21.08z" fill="#FF8578" id="svg_75"/>
   <path d="m1034.21,1426.94c-2.14,11.38 -9.98,19.47 -21.35,17.5l-151.11,-28.39c-0.91,-0.16 -1.78,-0.51 -2.55,-1.01c-0.78,-0.51 -1.44,-1.16 -1.96,-1.93c-0.53,-0.76 -0.89,-1.62 -1.09,-2.53c-0.18,-0.9 -0.2,-1.84 -0.03,-2.75l2.53,-13.47c0,0 159,27.95 175.73,32.58l-0.17,0z" fill="#F1F2F2" id="svg_76"/>
   <path d="m989.2,1388.72l-4.67,-4.11l-8.71,-7.92l-4.36,-4.02l-7.67,-6.91l-4.66,-4.38c-2.57,-2.36 -4.71,-4.37 -6.19,-5.55c-0.61,-0.51 -1.38,-0.79 -2.18,-0.79c-0.79,0 -1.56,0.28 -2.17,0.79c-6.24,5.25 -26.15,17.28 -62.71,-5.34c-0.4,-0.26 -0.85,-0.44 -1.32,-0.51c-0.47,-0.08 -0.95,-0.06 -1.42,0.06c-0.46,0.12 -0.89,0.33 -1.27,0.63c-0.37,0.3 -0.69,0.67 -0.91,1.09l-21.79,42.47c0,0 159,27.95 175.73,32.58c-6.14,-3.41 -26.4,-21.03 -45.7,-38.09z" fill="#3D3D7A" id="svg_77"/>
   <path d="m1272.33,1425.46c-0.3,11.59 -6.75,20.82 -18.3,20.51l-153.77,-3.67c-1.86,-0.05 -3.63,-0.83 -4.92,-2.19c-1.29,-1.35 -2,-3.16 -1.96,-5.03l0.35,-13.69c0,0 161.43,2.14 178.65,4.07l-0.05,0z" fill="#F1F2F2" id="svg_78"/>
   <path d="m1221.83,1394.93l-5.23,-3.32l-10.06,-6.43l-4.93,-3.24l-8.71,-5.55l-5.28,-3.46l-6.97,-4.37c-0.68,-0.43 -1.5,-0.6 -2.3,-0.48c-0.79,0.12 -1.52,0.52 -2.05,1.13c-5.32,6.17 -23.27,21.21 -62.75,4.73c-0.44,-0.19 -0.92,-0.29 -1.4,-0.29c-0.48,0 -0.95,0.1 -1.39,0.3c-0.44,0.19 -0.84,0.47 -1.17,0.82c-0.33,0.35 -0.58,0.77 -0.75,1.22l-14.98,45.44c0,0 161.43,2.15 178.64,4.07c-6.1,-2.67 -28.93,-16.84 -50.67,-30.57z" fill="#3D3D7A" id="svg_79"/>
   <path d="m960.96,652.68l3.35,6.52l-47.14,48.85l0,-14.34l43.79,-41.03z" fill="#E8987C" id="svg_89"/>
  </g>
 </g>
</svg>