<?xml version="1.0"?>
<svg width="1882" height="1489" xmlns="http://www.w3.org/2000/svg" xmlns:svg="http://www.w3.org/2000/svg">
 <defs>
  <clipPath id="clip0">
   <rect fill="white" height="1489" id="svg_1" width="1882"/>
  </clipPath>
 </defs>
 <g class="layer">
  <title>Layer 1</title>
  <g clip-path="url(#clip0)" id="svg_2">
   <path d="m1451.54,160.99l-6.49,0l0,6.52l6.49,0l0,-6.52z" fill="#F9FBFC" id="svg_31"/>
   <path d="m1400.35,181.2l223.66,0l0,-150.15l-223.66,0l0,150.15z" fill="#FBD15B" id="svg_41" transform="matrix(1 0 0 1 0 0)"/>
   <path d="m1494.25,71.03c-5.98,6.03 -9.71,13.95 -10.54,22.43c-0.83,8.47 1.27,16.97 5.96,24.06l-23.49,23.53c-0.47,0.48 -0.74,1.13 -0.74,1.81c0,0.68 0.27,1.34 0.74,1.82l6.58,6.6c0.24,0.24 0.51,0.44 0.82,0.57c0.31,0.13 0.64,0.19 0.97,0.19c0.33,0 0.66,-0.06 0.97,-0.19c0.31,-0.13 0.59,-0.33 0.82,-0.57l23.48,-23.57c5.79,3.84 12.54,5.95 19.48,6.09c6.93,0.15 13.77,-1.69 19.7,-5.28c5.94,-3.6 10.74,-8.81 13.85,-15.04c3.11,-6.22 4.4,-13.2 3.71,-20.13c-0.68,-6.93 -3.31,-13.52 -7.58,-19.01c-4.26,-5.49 -9.99,-9.65 -16.52,-12.01c-6.53,-2.35 -13.59,-2.8 -20.36,-1.3c-6.77,1.51 -12.98,4.92 -17.9,9.82l0.05,0.18zm7.62,7.69c3.64,-3.7 8.3,-6.23 13.38,-7.27c5.08,-1.04 10.36,-0.54 15.15,1.43c4.8,1.98 8.9,5.34 11.79,9.67c2.89,4.32 4.43,9.4 4.43,14.61c0,5.2 -1.54,10.29 -4.43,14.61c-2.89,4.33 -6.99,7.69 -11.79,9.67c-4.79,1.97 -10.07,2.47 -15.15,1.43c-5.08,-1.04 -9.74,-3.57 -13.38,-7.28c-4.83,-4.91 -7.54,-11.53 -7.54,-18.43c0,-6.9 2.71,-13.52 7.54,-18.44l0,0z" fill="#F9FBFC" id="svg_42"/>
  </g>
 </g>
</svg>