<?xml version="1.0"?>
<svg width="1882" height="1489" xmlns="http://www.w3.org/2000/svg" xmlns:svg="http://www.w3.org/2000/svg">
 <defs>
  <clipPath id="clip0">
   <rect fill="white" height="1489" id="svg_1" width="1882"/>
  </clipPath>
 </defs>
 <g class="layer">
  <title>Layer 1</title>
  <g clip-path="url(#clip0)" id="svg_2">
   <path d="m518.08,840.44l-37.21,0l0,613.31l37.21,0l0,-613.31z" fill="#8495A0" id="svg_83"/>
   <path d="m719.96,840.44l-37.22,0l0,613.31l37.22,0l0,-613.31z" fill="#ABB5BA" id="svg_84"/>
   <path d="m1366.75,840.44l-37.21,0l0,613.31l37.21,0l0,-613.31z" fill="#8495A0" id="svg_85"/>
   <path d="m1568.62,840.44l-37.21,0l0,613.31l37.21,0l0,-613.31z" fill="#ABB5BA" id="svg_86"/>
   <path d="m443.62,842.75l1160.61,0c9.98,0 18.08,-8.12 18.08,-18.15l0,-7.96c0,-10.02 -8.1,-18.15 -18.08,-18.15l-1160.61,0c-9.99,0 -18.08,8.13 -18.08,18.15l0,7.96c0,10.03 8.09,18.15 18.08,18.15z" fill="#141B56" id="svg_87"/>
  </g>
 </g>
</svg>