<?xml version="1.0"?>
<svg width="1882" height="1489" xmlns="http://www.w3.org/2000/svg" xmlns:svg="http://www.w3.org/2000/svg">
 <defs>
  <linearGradient id="paint6_linear" x1="0.56" x2="0.56" y1="0.01" y2="1.01">
   <stop stop-color="#606BF1"/>
   <stop offset="1" stop-color="#58479F"/>
  </linearGradient>
  <linearGradient id="paint7_linear" x1="-64.38" x2="-69.87" y1="-269.06" y2="-228.38">
   <stop stop-color="#606BF1"/>
   <stop offset="1" stop-color="#58479F"/>
  </linearGradient>
  <linearGradient id="paint8_linear" x1="-180.25" x2="-155.04" y1="-185.08" y2="-143.95">
   <stop stop-color="#606BF1"/>
   <stop offset="1" stop-color="#58479F"/>
  </linearGradient>
  <clipPath id="clip0">
   <rect fill="white" height="1489" id="svg_1" width="1882"/>
  </clipPath>
 </defs>
 <g class="layer">
  <title>Layer 1</title>
  <g clip-path="url(#clip0)" id="svg_2">
   <path d="m299.39,1124.95c7.45,36.43 5.23,98.45 53.2,108.24c13.07,2.67 25.4,-6.34 32.9,-16.62c9.84,-13.51 12.02,-42.03 12.02,-58.56c0,-13.12 -4.35,-27.33 -5.92,-40.41c-1.53,-14.08 -2.79,-28.21 -4.36,-42.29c-5.97,-50.61 -32.37,-93.16 -76.86,-118.48c-3.49,16.66 -11.37,30.61 -18.3,46.75c-3.24,7.35 -5.95,14.92 -8.11,22.65c-3.66,13.52 0.79,27.21 4.05,40.2c4.62,19.15 7.37,39.1 11.38,58.52z" fill="url(#paint6_linear)" id="svg_91"/>
   <path d="m451.24,1114.54c-8.72,36.17 -36.65,91.45 2.74,120.67c10.59,7.87 25.67,5.02 36.82,-1.14c14.6,-8.05 28.72,-32.94 35.43,-47.81c5.31,-11.8 7.4,-26.72 11.59,-39.36c4.35,-13.43 9.37,-26.77 13.81,-40.19c15.99,-48.55 9.94,-98.32 -19.91,-140.22c-10.15,13.64 -23.23,23.09 -36.26,34.64c-6.02,5.28 -11.66,10.99 -16.86,17.1c-9.02,10.71 -10.76,25.02 -13.07,38.14c-3.83,19.59 -9.76,38.88 -14.29,58.17z" fill="url(#paint7_linear)" id="svg_92"/>
   <path d="m368.06,1086.46c-2,45.96 -23.44,119.7 31.16,146.12c14.72,7.09 32.41,0 44.53,-9.97c15.86,-13.12 27.32,-46.71 32.02,-66.35c3.75,-15.57 2.84,-34.2 5.1,-50.3c2.4,-17.49 5.19,-34.72 7.5,-52.13c8.23,-62.72 -10.64,-121.81 -56.65,-165.8c-9.15,18.93 -22.87,33.46 -36.08,50.56c-6.1,7.8 -11.62,16.04 -16.51,24.66c-8.72,15.13 -7.32,32.94 -7.32,49.47c0.08,24.49 -2.66,49.29 -3.75,73.74z" fill="url(#paint8_linear)" id="svg_93"/>
   <path d="m337.95,1253.71l2,37.39l3.18,58.17l5.15,95.61l128.97,0l5.19,-95.61l3.13,-58.17l2.05,-37.39l-149.67,0z" fill="#95A8B5" id="svg_94"/>
   <path d="m339.95,1291.1l0.44,7.48l0.39,7.78l2.35,42.91l139.31,0l2.31,-42.91l0.43,-7.78l0.39,-7.48l-145.62,0z" fill="#A5B7C6" id="svg_95"/>
   <path d="m340.39,1298.58l0.39,7.78l143.97,0l0.43,-7.78l-144.79,0z" fill="#95A8B5" id="svg_96"/>
  </g>
 </g>
</svg>